<svg xmlns="http://www.w3.org/2000/svg" xmlns:xlink="http://www.w3.org/1999/xlink" width="500" zoomAndPan="magnify" viewBox="0 0 375 374.999991" height="500" preserveAspectRatio="xMidYMid meet" version="1.0"><defs><g/><clipPath id="2e5a41a6b4"><path d="M 67.714844 99.230469 L 230 99.230469 L 230 163.730469 L 67.714844 163.730469 Z M 67.714844 99.230469 " clip-rule="nonzero"/></clipPath><clipPath id="2eeb0b2777"><path d="M 159 99.230469 L 271.714844 99.230469 L 271.714844 163.730469 L 159 163.730469 Z M 159 99.230469 " clip-rule="nonzero"/></clipPath><clipPath id="a2b67fb771"><path d="M 215 99.230469 L 240 99.230469 L 240 132 L 215 132 Z M 215 99.230469 " clip-rule="nonzero"/></clipPath><clipPath id="2471c324e6"><path d="M 239.15625 143.144531 L 324.964844 143.144531 L 324.964844 163.894531 L 239.15625 163.894531 Z M 239.15625 143.144531 " clip-rule="nonzero"/></clipPath></defs><g clip-path="url(#2e5a41a6b4)"><path fill="#ed7817" d="M 152.488281 99.285156 L 67.714844 163.863281 L 91.96875 163.863281 L 152.488281 118.335938 L 209.644531 163.863281 L 229.558594 163.863281 Z M 152.488281 99.285156 " fill-opacity="1" fill-rule="nonzero"/></g><g clip-path="url(#2eeb0b2777)"><path fill="#ed7817" d="M 159.003906 99.363281 L 234.960938 163.785156 L 271.378906 163.785156 L 194.570312 99.363281 Z M 159.003906 99.363281 " fill-opacity="1" fill-rule="nonzero"/></g><path fill="#ffffff" d="M 147.820312 148.941406 L 125.679688 148.941406 L 147.820312 131.648438 Z M 147.820312 148.941406 " fill-opacity="1" fill-rule="nonzero"/><path fill="#ffffff" d="M 155.78125 148.941406 L 177.921875 148.941406 L 155.78125 131.648438 Z M 155.78125 148.941406 " fill-opacity="1" fill-rule="nonzero"/><g clip-path="url(#a2b67fb771)"><path fill="#ffffff" d="M 215.550781 112.140625 L 239.332031 131.496094 L 239.332031 99.253906 L 215.550781 99.253906 Z M 215.550781 112.140625 " fill-opacity="1" fill-rule="nonzero"/></g><g clip-path="url(#2471c324e6)"><path fill="#ed7817" d="M 239.15625 143.144531 L 324.992188 143.144531 L 324.992188 163.894531 L 239.15625 163.894531 Z M 239.15625 143.144531 " fill-opacity="1" fill-rule="nonzero"/></g><g fill="#000000" fill-opacity="1"><g transform="translate(147.068918, 268.597808)"><g><path d="M 4.101562 0 L 4.101562 -8.601562 L 12.847656 -8.601562 L 12.847656 0 L 14.828125 0 L 14.828125 -19.242188 L 12.847656 -19.242188 L 12.847656 -10.582031 L 4.101562 -10.582031 L 4.101562 -19.242188 L 2.121094 -19.242188 L 2.121094 0 Z M 4.101562 0 "/></g></g></g><g fill="#000000" fill-opacity="1"><g transform="translate(176.69173, 268.597808)"><g><path d="M 13.554688 0 L 13.554688 -1.839844 L 4.101562 -1.839844 L 4.101562 -8.6875 L 13.269531 -8.6875 L 13.269531 -10.554688 L 4.101562 -10.554688 L 4.101562 -17.402344 L 13.554688 -17.402344 L 13.554688 -19.242188 L 2.121094 -19.242188 L 2.121094 0 Z M 13.554688 0 "/></g></g></g><g fill="#000000" fill-opacity="1"><g transform="translate(205.041535, 268.597808)"><g><path d="M 4.101562 -1.980469 L 4.101562 -19.242188 L 2.121094 -19.242188 L 2.121094 0 L 10.976562 0 L 10.976562 -1.980469 Z M 4.101562 -1.980469 "/></g></g></g><g fill="#000000" fill-opacity="1"><g transform="translate(229.261183, 268.597808)"><g><path d="M 4.101562 -9.535156 L 4.101562 -17.34375 L 8.574219 -17.34375 C 9.734375 -17.34375 10.667969 -16.976562 11.375 -16.269531 C 12.054688 -15.535156 12.421875 -14.628906 12.421875 -13.496094 C 12.421875 -12.335938 12.054688 -11.402344 11.316406 -10.640625 C 10.582031 -9.902344 9.675781 -9.535156 8.574219 -9.535156 Z M 14.402344 -13.441406 C 14.402344 -15.136719 13.78125 -16.523438 12.589844 -17.628906 C 11.402344 -18.703125 9.988281 -19.242188 8.289062 -19.242188 L 2.121094 -19.242188 L 2.121094 0 L 4.101562 0 L 4.101562 -7.609375 L 8.289062 -7.609375 C 9.988281 -7.609375 11.429688 -8.148438 12.589844 -9.222656 C 13.78125 -10.355469 14.402344 -11.742188 14.402344 -13.441406 Z M 14.402344 -13.441406 "/></g></g></g><g fill="#000000" fill-opacity="1"><g transform="translate(76.348687, 229.767158)"><g><path d="M 6.734375 0 L 0.828125 -55.0625 L 11.609375 -55.0625 L 14.6875 -20.328125 L 17.765625 -55.0625 L 28.015625 -55.0625 L 30.96875 -20.328125 L 33.90625 -55.0625 L 44.8125 -55.0625 L 38.78125 0 L 25.578125 0 L 22.828125 -26.546875 L 20.1875 0 Z M 6.734375 0 "/></g></g></g><g fill="#000000" fill-opacity="1"><g transform="translate(129.877061, 229.767158)"><g><path d="M 1.921875 0 L 1.921875 -55.0625 L 12.5625 -55.0625 L 12.5625 0 Z M 1.921875 0 "/></g></g></g><g fill="#000000" fill-opacity="1"><g transform="translate(152.314443, 229.767158)"><g><path d="M 2.4375 0 L 2.4375 -55.0625 L 13.78125 -55.0625 L 18.84375 -28.71875 L 18.84375 -55.0625 L 29.484375 -55.0625 L 29.484375 0 L 18.71875 0 L 13.203125 -27.5625 L 13.203125 0 Z M 2.4375 0 "/></g></g></g><g fill="#000000" fill-opacity="1"><g transform="translate(192.124313, 229.767158)"><g><path d="M 2.4375 -55.0625 L 17.625 -55.0625 C 21.5625 -55.0625 24.507812 -53.972656 26.46875 -51.796875 C 28.4375 -49.617188 29.441406 -46.394531 29.484375 -42.125 L 29.625 -16.34375 C 29.664062 -10.914062 28.722656 -6.832031 26.796875 -4.09375 C 24.867188 -1.363281 21.6875 0 17.25 0 L 2.4375 0 Z M 15.453125 -9.75 C 17.460938 -9.75 18.46875 -10.726562 18.46875 -12.6875 L 18.46875 -41.09375 C 18.46875 -42.332031 18.367188 -43.257812 18.171875 -43.875 C 17.984375 -44.5 17.628906 -44.914062 17.109375 -45.125 C 16.597656 -45.34375 15.8125 -45.453125 14.75 -45.453125 L 13.53125 -45.453125 L 13.53125 -9.75 Z M 15.453125 -9.75 "/></g></g></g><g fill="#000000" fill-opacity="1"><g transform="translate(231.613664, 229.767158)"><g><path d="M 15.578125 0.515625 C 11.128906 0.515625 7.75 -0.835938 5.4375 -3.546875 C 3.132812 -6.265625 1.984375 -10.082031 1.984375 -15 L 1.984375 -41.21875 C 1.984375 -45.96875 3.132812 -49.546875 5.4375 -51.953125 C 7.75 -54.367188 11.128906 -55.578125 15.578125 -55.578125 C 20.023438 -55.578125 23.398438 -54.367188 25.703125 -51.953125 C 28.015625 -49.546875 29.171875 -45.96875 29.171875 -41.21875 L 29.171875 -15 C 29.171875 -10.039062 28.015625 -6.210938 25.703125 -3.515625 C 23.398438 -0.828125 20.023438 0.515625 15.578125 0.515625 Z M 15.578125 -9.609375 C 16.554688 -9.609375 17.21875 -10.035156 17.5625 -10.890625 C 17.90625 -11.753906 18.078125 -12.953125 18.078125 -14.484375 L 18.078125 -41.421875 C 18.078125 -42.609375 17.914062 -43.578125 17.59375 -44.328125 C 17.28125 -45.078125 16.628906 -45.453125 15.640625 -45.453125 C 13.804688 -45.453125 12.890625 -44.0625 12.890625 -41.28125 L 12.890625 -14.421875 C 12.890625 -12.835938 13.082031 -11.640625 13.46875 -10.828125 C 13.851562 -10.015625 14.554688 -9.609375 15.578125 -9.609375 Z M 15.578125 -9.609375 "/></g></g></g><g fill="#000000" fill-opacity="1"><g transform="translate(270.654269, 229.767158)"><g><path d="M 6.734375 0 L 0.828125 -55.0625 L 11.609375 -55.0625 L 14.6875 -20.328125 L 17.765625 -55.0625 L 28.015625 -55.0625 L 30.96875 -20.328125 L 33.90625 -55.0625 L 44.8125 -55.0625 L 38.78125 0 L 25.578125 0 L 22.828125 -26.546875 L 20.1875 0 Z M 6.734375 0 "/></g></g></g></svg>